<svg xmlns="http://www.w3.org/2000/svg" version="1.1" xmlns:xlink="http://www.w3.org/1999/xlink" xmlns:svgjs="http://svgjs.com/svgjs" width="4840" height="300" transform="matrix(1,0,0,1,0,0)">
  <text font-family="DM Sans" font-size="260" text-anchor="left" x="310" charspacing="20px">
    <tspan dy="239.20000000000002" x="310">Nutrición y dietetica irene</tspan>
  </text>
  <path transform="matrix(6.123233995736766e-17,1,-1,6.123233995736766e-17,148,149.33)" d="M33.864,68.844A16.88411437093114,16.88411437093114,51.50562664568368,0,1,28,39L32.471,35.647A15.208958342708618,15.208958342708618,-54.688786560366815,0,0,28,9L0,0L88.767,57.105A12.935753357435017,12.935753357435017,18.117938140479904,0,1,78.5,80.5ZM-33.864,-68.844A16.88411437093115,16.88411437093115,51.5056266456837,0,1,-28,-39L-32.471,-35.647A15.20895834270861,15.20895834270861,-54.68878656036679,0,0,-28,-9L0,0L-88.767,-57.105A12.935753357435031,12.935753357435031,18.11793814047992,0,1,-78.5,-80.5Z"/>
</svg>